<svg xmlns="http://www.w3.org/2000/svg" viewBox="0 0 400 480" fill="none">
  <defs>
    <linearGradient id="g1" x1="0" y1="0" x2="1" y2="1">
      <stop offset="0" stop-color="#1B4332"/>
      <stop offset="1" stop-color="#0B2218"/>
    </linearGradient>
  </defs>
  <!-- Crescent moon -->
  <path d="M285 60 a28 28 0 1 0 20 44 a22 22 0 1 1 -20 -44 z" fill="url(#g1)"/>
  <!-- Diamond frame -->
  <path d="M200 70 L310 220 L200 370 L90 220 Z" stroke="url(#g1)" stroke-width="9" fill="none" stroke-linejoin="round"/>
  <!-- House body -->
  <path d="M145 200 L200 150 L255 200 L255 260 L145 260 Z" fill="url(#g1)"/>
  <!-- Chimney -->
  <rect x="235" y="160" width="14" height="22" fill="url(#g1)"/>
  <!-- Window -->
  <rect x="175" y="210" width="30" height="26" fill="#F7F4ED"/>
  <line x1="190" y1="210" x2="190" y2="236" stroke="#1B4332" stroke-width="2"/>
  <line x1="175" y1="223" x2="205" y2="223" stroke="#1B4332" stroke-width="2"/>
  <!-- Inner V -->
  <path d="M165 290 L200 330 L235 290" stroke="#95D5B2" stroke-width="6" fill="none" stroke-linejoin="round" opacity="0.65"/>
  <!-- Wordmark CELESTE -->
  <text x="200" y="420" font-family="'Cormorant Garamond', 'Playfair Display', Georgia, serif" font-size="64" font-weight="500" text-anchor="middle" fill="#1B4332" letter-spacing="6">CELESTE</text>
  <!-- LIVING GROUP -->
  <text x="200" y="452" font-family="'Cormorant Garamond', Georgia, serif" font-size="22" font-weight="400" text-anchor="middle" fill="#1B4332" letter-spacing="7">LIVING GROUP</text>
</svg>
