<svg xmlns="http://www.w3.org/2000/svg" viewBox="0 0 400 400" fill="none">
  <defs>
    <linearGradient id="g2" x1="0" y1="0" x2="1" y2="1">
      <stop offset="0" stop-color="#1B4332"/>
      <stop offset="1" stop-color="#0B2218"/>
    </linearGradient>
  </defs>
  <path d="M295 70 a32 32 0 1 0 22 50 a26 26 0 1 1 -22 -50 z" fill="url(#g2)"/>
  <path d="M200 60 L330 230 L200 390 L70 230 Z" stroke="url(#g2)" stroke-width="11" fill="none" stroke-linejoin="round"/>
  <path d="M140 205 L200 150 L260 205 L260 275 L140 275 Z" fill="url(#g2)"/>
  <rect x="238" y="162" width="16" height="26" fill="url(#g2)"/>
  <rect x="172" y="218" width="34" height="30" fill="#F7F4ED"/>
  <line x1="189" y1="218" x2="189" y2="248" stroke="#1B4332" stroke-width="2.5"/>
  <line x1="172" y1="233" x2="206" y2="233" stroke="#1B4332" stroke-width="2.5"/>
  <path d="M160 305 L200 350 L240 305" stroke="#95D5B2" stroke-width="7" fill="none" stroke-linejoin="round" opacity="0.7"/>
</svg>
